# xmcd CD database file
#
# Track frame offsets:
#	150
#	16802
#	44980
#	73205
#	91850
#	116602
#	140325
#	159670
#	183460
#	208285
#	238140
#
# Disc length: 3789 seconds
#
# Revision: 0
# Processed by: cddbd v1.5.1PL2 Copyright (c) Steve Scherf et al.
# Submitted via: CDex 1.51
#
DISCID=a40ecb0b
DTITLE=Keiko Lee - Vitamin K
DYEAR=2003
DGENRE=Jazz
TTITLE0=Vitamin K
TTITLE1=The Wonder Of Love
TTITLE2=Don't Break My Heart
TTITLE3=Diamonds In The Snow
TTITLE4=Forever
TTITLE5=If It's Love[2003 Version]
TTITLE6=The Flame
TTITLE7=The Moment Of Love[With Strings Version]
TTITLE8=What You Do
TTITLE9=Closer To One
TTITLE10=Love Is All There Is
EXTD=YEAR: 2003
EXTT0=
EXTT1=
EXTT2=
EXTT3=
EXTT4=
EXTT5=
EXTT6=
EXTT7=
EXTT8=
EXTT9=
EXTT10=
PLAYORDER=
